<?xml version="1.0" standalone="no"?>
 <!DOCTYPE svg PUBLIC "-//W3C//DTD SVG 1.1//EN" 
 "http://www.w3.org/Graphics/SVG/1.1/DTD/svg11.dtd"> 
<svg
  xmlns:svg="http://www.w3.org/2000/svg"
  xmlns="http://www.w3.org/2000/svg"
  xmlns:xlink="http://www.w3.org/1999/xlink"
  version="1.1"
  width="12.608560cm" height="7.109460cm" viewBox="0 0 126085600 71094600">
<title>SVG Picture created as BusDisplay-brd.svg date 2022/03/15 17:36:39 </title>
  <desc>Picture generated by PCBNEW </desc>
<g style="fill:#000000; fill-opacity:1.000000;stroke:#000000; stroke-opacity:1.000000;
stroke-linecap:round; stroke-linejoin:round;"
 transform="translate(0 0) scale(1 1)">
</g>
<g style="fill:#000000; fill-opacity:0.0; 
stroke:#000000; stroke-width:0.000000; stroke-opacity:1; 
stroke-linecap:round; stroke-linejoin:round;">
</g>
<g style="fill:#000000; fill-opacity:0.0; 
stroke:#000000; stroke-width:150000.000000; stroke-opacity:1; 
stroke-linecap:round; stroke-linejoin:round;">
<path d="M124640000 70030000
L1450000 70030000
" />
<path d="M1450000 70030000
L1450000 1450000
" />
<path d="M1450000 1450000
L124640000 1450000
" />
<path d="M124640000 1450000
L124640000 70030000
" />
<text x="8050000.000000" y="60350000.000000"
textLength="4285715.000000" font-size="1333333.000000" lengthAdjust="spacingAndGlyphs"
text-anchor="middle" opacity="0">REF**</text>
<g class="stroked-text"><desc>REF**</desc>
<path d="M6716666 60302380
L6383333 59826190
" />
<path d="M6145238 60302380
L6145238 59302380
L6526190 59302380
L6621428 59350000
L6669047 59397619
L6716666 59492857
L6716666 59635714
L6669047 59730952
L6621428 59778571
L6526190 59826190
L6145238 59826190
" />
<path d="M7145238 59778571
L7478571 59778571
" />
<path d="M7621428 60302380
L7145238 60302380
L7145238 59302380
L7621428 59302380
" />
<path d="M8383333 59778571
L8050000 59778571
" />
<path d="M8050000 60302380
L8050000 59302380
L8526190 59302380
" />
<path d="M9050000 59302380
L9050000 59540476
" />
<path d="M8811904 59445238
L9050000 59540476
L9288095 59445238
" />
<path d="M8907142 59730952
L9050000 59540476
L9192857 59730952
" />
<path d="M9811904 59302380
L9811904 59540476
" />
<path d="M9573809 59445238
L9811904 59540476
L10050000 59445238
" />
<path d="M9669047 59730952
L9811904 59540476
L9954761 59730952
" />
</g><text x="118050000.000000" y="60350000.000000"
textLength="4480714.000000" font-size="1333333.000000" lengthAdjust="spacingAndGlyphs"
text-anchor="middle" opacity="0">REF**</text>
<g class="stroked-text"><desc>REF**</desc>
<path d="M116716666 60302380
L116383333 59826190
" />
<path d="M116145238 60302380
L116145238 59302380
L116526190 59302380
L116621428 59350000
L116669047 59397619
L116716666 59492857
L116716666 59635714
L116669047 59730952
L116621428 59778571
L116526190 59826190
L116145238 59826190
" />
<path d="M117145238 59778571
L117478571 59778571
" />
<path d="M117621428 60302380
L117145238 60302380
L117145238 59302380
L117621428 59302380
" />
<path d="M118383333 59778571
L118050000 59778571
" />
<path d="M118050000 60302380
L118050000 59302380
L118526190 59302380
" />
<path d="M119050000 59302380
L119050000 59540476
" />
<path d="M118811904 59445238
L119050000 59540476
L119288095 59445238
" />
<path d="M118907142 59730952
L119050000 59540476
L119192857 59730952
" />
<path d="M119811904 59302380
L119811904 59540476
" />
<path d="M119573809 59445238
L119811904 59540476
L120050000 59445238
" />
<path d="M119669047 59730952
L119811904 59540476
L119954761 59730952
" />
</g><text x="118050000.000000" y="3350000.000000"
textLength="4480714.000000" font-size="1333333.000000" lengthAdjust="spacingAndGlyphs"
text-anchor="middle" opacity="0">REF**</text>
<g class="stroked-text"><desc>REF**</desc>
<path d="M116716666 3302380
L116383333 2826190
" />
<path d="M116145238 3302380
L116145238 2302380
L116526190 2302380
L116621428 2350000
L116669047 2397619
L116716666 2492857
L116716666 2635714
L116669047 2730952
L116621428 2778571
L116526190 2826190
L116145238 2826190
" />
<path d="M117145238 2778571
L117478571 2778571
" />
<path d="M117621428 3302380
L117145238 3302380
L117145238 2302380
L117621428 2302380
" />
<path d="M118383333 2778571
L118050000 2778571
" />
<path d="M118050000 3302380
L118050000 2302380
L118526190 2302380
" />
<path d="M119050000 2302380
L119050000 2540476
" />
<path d="M118811904 2445238
L119050000 2540476
L119288095 2445238
" />
<path d="M118907142 2730952
L119050000 2540476
L119192857 2730952
" />
<path d="M119811904 2302380
L119811904 2540476
" />
<path d="M119573809 2445238
L119811904 2540476
L120050000 2445238
" />
<path d="M119669047 2730952
L119811904 2540476
L119954761 2730952
" />
</g><text x="105585000.000000" y="66550000.000000"
textLength="2147381.000000" font-size="1333333.000000" lengthAdjust="spacingAndGlyphs"
text-anchor="middle" opacity="0">R2</text>
<g class="stroked-text"><desc>R2</desc>
<path d="M105418333 66502380
L105085000 66026190
" />
<path d="M104846904 66502380
L104846904 65502380
L105227857 65502380
L105323095 65550000
L105370714 65597619
L105418333 65692857
L105418333 65835714
L105370714 65930952
L105323095 65978571
L105227857 66026190
L104846904 66026190
" />
<path d="M105799285 65597619
L105846904 65550000
L105942142 65502380
L106180238 65502380
L106275476 65550000
L106323095 65597619
L106370714 65692857
L106370714 65788095
L106323095 65930952
L105751666 66502380
L106370714 66502380
" />
</g><text x="30020000.000000" y="60220000.000000"
textLength="2147381.000000" font-size="1333333.000000" lengthAdjust="spacingAndGlyphs"
text-anchor="middle" opacity="0">D1</text>
<g class="stroked-text"><desc>D1</desc>
<path d="M29281904 60172380
L29281904 59172380
L29520000 59172380
L29662857 59220000
L29758095 59315238
L29805714 59410476
L29853333 59600952
L29853333 59743809
L29805714 59934285
L29758095 60029523
L29662857 60124761
L29520000 60172380
L29281904 60172380
" />
<path d="M30805714 60172380
L30234285 60172380
" />
<path d="M30520000 60172380
L30520000 59172380
L30424761 59315238
L30329523 59410476
L30234285 59458095
" />
</g><g transform="rotate(-90.000000 15245000.000000 23040000.000000)">
<text x="15245000.000000" y="23540000.000000"
textLength="2147381.000000" font-size="1333333.000000" lengthAdjust="spacingAndGlyphs"
text-anchor="middle" opacity="0">R3</text>
</g>
<g class="stroked-text"><desc>R3</desc>
<path d="M15697380 23206666
L15221190 23540000
" />
<path d="M15697380 23778095
L14697380 23778095
L14697380 23397142
L14745000 23301904
L14792619 23254285
L14887857 23206666
L15030714 23206666
L15125952 23254285
L15173571 23301904
L15221190 23397142
L15221190 23778095
" />
<path d="M14697380 22873333
L14697380 22254285
L15078333 22587619
L15078333 22444761
L15125952 22349523
L15173571 22301904
L15268809 22254285
L15506904 22254285
L15602142 22301904
L15649761 22349523
L15697380 22444761
L15697380 22730476
L15649761 22825714
L15602142 22873333
" />
</g><g transform="rotate(-90.000000 22865000.000000 15420000.000000)">
<text x="22865000.000000" y="15920000.000000"
textLength="2147381.000000" font-size="1333333.000000" lengthAdjust="spacingAndGlyphs"
text-anchor="middle" opacity="0">R5</text>
</g>
<g class="stroked-text"><desc>R5</desc>
<path d="M23317380 15586666
L22841190 15920000
" />
<path d="M23317380 16158095
L22317380 16158095
L22317380 15777142
L22365000 15681904
L22412619 15634285
L22507857 15586666
L22650714 15586666
L22745952 15634285
L22793571 15681904
L22841190 15777142
L22841190 16158095
" />
<path d="M22317380 14681904
L22317380 15158095
L22793571 15205714
L22745952 15158095
L22698333 15062857
L22698333 14824761
L22745952 14729523
L22793571 14681904
L22888809 14634285
L23126904 14634285
L23222142 14681904
L23269761 14729523
L23317380 14824761
L23317380 15062857
L23269761 15158095
L23222142 15205714
" />
</g><text x="86535000.000000" y="28620000.000000"
textLength="2195000.000000" font-size="1333333.000000" lengthAdjust="spacingAndGlyphs"
text-anchor="middle" opacity="0">U3</text>
<g class="stroked-text"><desc>U3</desc>
<path d="M85773095 27572380
L85773095 28381904
L85820714 28477142
L85868333 28524761
L85963571 28572380
L86154047 28572380
L86249285 28524761
L86296904 28477142
L86344523 28381904
L86344523 27572380
" />
<path d="M86725476 27572380
L87344523 27572380
L87011190 27953333
L87154047 27953333
L87249285 28000952
L87296904 28048571
L87344523 28143809
L87344523 28381904
L87296904 28477142
L87249285 28524761
L87154047 28572380
L86868333 28572380
L86773095 28524761
L86725476 28477142
" />
</g><g transform="rotate(-90.000000 20325000.000000 17960000.000000)">
<text x="20325000.000000" y="18460000.000000"
textLength="2147381.000000" font-size="1333333.000000" lengthAdjust="spacingAndGlyphs"
text-anchor="middle" opacity="0">R7</text>
</g>
<g class="stroked-text"><desc>R7</desc>
<path d="M20777380 18126666
L20301190 18460000
" />
<path d="M20777380 18698095
L19777380 18698095
L19777380 18317142
L19825000 18221904
L19872619 18174285
L19967857 18126666
L20110714 18126666
L20205952 18174285
L20253571 18221904
L20301190 18317142
L20301190 18698095
" />
<path d="M19777380 17793333
L19777380 17126666
L20777380 17555238
" />
</g><text x="52195000.000000" y="3640000.000000"
textLength="1909286.000000" font-size="1333333.000000" lengthAdjust="spacingAndGlyphs"
text-anchor="middle" opacity="0">J2</text>
<g class="stroked-text"><desc>J2</desc>
<path d="M51861666 2592380
L51861666 3306666
L51814047 3449523
L51718809 3544761
L51575952 3592380
L51480714 3592380
" />
<path d="M52290238 2687619
L52337857 2640000
L52433095 2592380
L52671190 2592380
L52766428 2640000
L52814047 2687619
L52861666 2782857
L52861666 2878095
L52814047 3020952
L52242619 3592380
L52861666 3592380
" />
</g><text x="78065000.000000" y="3640000.000000"
textLength="1909286.000000" font-size="1333333.000000" lengthAdjust="spacingAndGlyphs"
text-anchor="middle" opacity="0">J4</text>
<g class="stroked-text"><desc>J4</desc>
<path d="M77731666 2592380
L77731666 3306666
L77684047 3449523
L77588809 3544761
L77445952 3592380
L77350714 3592380
" />
<path d="M78636428 2925714
L78636428 3592380
" />
<path d="M78398333 2544761
L78160238 3259047
L78779285 3259047
" />
</g><text x="23325000.000000" y="3560000.000000"
textLength="1909286.000000" font-size="1333333.000000" lengthAdjust="spacingAndGlyphs"
text-anchor="middle" opacity="0">J1</text>
<g class="stroked-text"><desc>J1</desc>
<path d="M22991666 2512380
L22991666 3226666
L22944047 3369523
L22848809 3464761
L22705952 3512380
L22610714 3512380
" />
<path d="M23991666 3512380
L23420238 3512380
" />
<path d="M23705952 3512380
L23705952 2512380
L23610714 2655238
L23515476 2750476
L23420238 2798095
" />
</g><text x="68315000.000000" y="3640000.000000"
textLength="1909286.000000" font-size="1333333.000000" lengthAdjust="spacingAndGlyphs"
text-anchor="middle" opacity="0">J3</text>
<g class="stroked-text"><desc>J3</desc>
<path d="M67981666 2592380
L67981666 3306666
L67934047 3449523
L67838809 3544761
L67695952 3592380
L67600714 3592380
" />
<path d="M68362619 2592380
L68981666 2592380
L68648333 2973333
L68791190 2973333
L68886428 3020952
L68934047 3068571
L68981666 3163809
L68981666 3401904
L68934047 3497142
L68886428 3544761
L68791190 3592380
L68505476 3592380
L68410238 3544761
L68362619 3497142
" />
</g><text x="85685000.000000" y="3560000.000000"
textLength="1909286.000000" font-size="1333333.000000" lengthAdjust="spacingAndGlyphs"
text-anchor="middle" opacity="0">J5</text>
<g class="stroked-text"><desc>J5</desc>
<path d="M85351666 2512380
L85351666 3226666
L85304047 3369523
L85208809 3464761
L85065952 3512380
L84970714 3512380
" />
<path d="M86304047 2512380
L85827857 2512380
L85780238 2988571
L85827857 2940952
L85923095 2893333
L86161190 2893333
L86256428 2940952
L86304047 2988571
L86351666 3083809
L86351666 3321904
L86304047 3417142
L86256428 3464761
L86161190 3512380
L85923095 3512380
L85827857 3464761
L85780238 3417142
" />
</g><text x="20495000.000000" y="28620000.000000"
textLength="2195000.000000" font-size="1333333.000000" lengthAdjust="spacingAndGlyphs"
text-anchor="middle" opacity="0">U1</text>
<g class="stroked-text"><desc>U1</desc>
<path d="M19733095 27572380
L19733095 28381904
L19780714 28477142
L19828333 28524761
L19923571 28572380
L20114047 28572380
L20209285 28524761
L20256904 28477142
L20304523 28381904
L20304523 27572380
" />
<path d="M21304523 28572380
L20733095 28572380
" />
<path d="M21018809 28572380
L21018809 27572380
L20923571 27715238
L20828333 27810476
L20733095 27858095
" />
</g><text x="108420000.000000" y="3560000.000000"
textLength="3242619.000000" font-size="1333333.000000" lengthAdjust="spacingAndGlyphs"
text-anchor="middle" opacity="0">SW1</text>
<g class="stroked-text"><desc>SW1</desc>
<path d="M107086666 3464761
L107229523 3512380
L107467619 3512380
L107562857 3464761
L107610476 3417142
L107658095 3321904
L107658095 3226666
L107610476 3131428
L107562857 3083809
L107467619 3036190
L107277142 2988571
L107181904 2940952
L107134285 2893333
L107086666 2798095
L107086666 2702857
L107134285 2607619
L107181904 2560000
L107277142 2512380
L107515238 2512380
L107658095 2560000
" />
<path d="M107991428 2512380
L108229523 3512380
L108420000 2798095
L108610476 3512380
L108848571 2512380
" />
<path d="M109753333 3512380
L109181904 3512380
" />
<path d="M109467619 3512380
L109467619 2512380
L109372380 2655238
L109277142 2750476
L109181904 2798095
" />
</g><text x="39545000.000000" y="66550000.000000"
textLength="2147381.000000" font-size="1333333.000000" lengthAdjust="spacingAndGlyphs"
text-anchor="middle" opacity="0">R1</text>
<g class="stroked-text"><desc>R1</desc>
<path d="M39378333 66502380
L39045000 66026190
" />
<path d="M38806904 66502380
L38806904 65502380
L39187857 65502380
L39283095 65550000
L39330714 65597619
L39378333 65692857
L39378333 65835714
L39330714 65930952
L39283095 65978571
L39187857 66026190
L38806904 66026190
" />
<path d="M40330714 66502380
L39759285 66502380
" />
<path d="M40045000 66502380
L40045000 65502380
L39949761 65645238
L39854523 65740476
L39759285 65788095
" />
</g><text x="105585000.000000" y="28620000.000000"
textLength="2195000.000000" font-size="1333333.000000" lengthAdjust="spacingAndGlyphs"
text-anchor="middle" opacity="0">U4</text>
<g class="stroked-text"><desc>U4</desc>
<path d="M104823095 27572380
L104823095 28381904
L104870714 28477142
L104918333 28524761
L105013571 28572380
L105204047 28572380
L105299285 28524761
L105346904 28477142
L105394523 28381904
L105394523 27572380
" />
<path d="M106299285 27905714
L106299285 28572380
" />
<path d="M106061190 27524761
L105823095 28239047
L106442142 28239047
" />
</g><text x="29385000.000000" y="15750000.000000"
textLength="2147381.000000" font-size="1333333.000000" lengthAdjust="spacingAndGlyphs"
text-anchor="middle" opacity="0">R9</text>
<g class="stroked-text"><desc>R9</desc>
<path d="M29218333 15702380
L28885000 15226190
" />
<path d="M28646904 15702380
L28646904 14702380
L29027857 14702380
L29123095 14750000
L29170714 14797619
L29218333 14892857
L29218333 15035714
L29170714 15130952
L29123095 15178571
L29027857 15226190
L28646904 15226190
" />
<path d="M29694523 15702380
L29885000 15702380
L29980238 15654761
L30027857 15607142
L30123095 15464285
L30170714 15273809
L30170714 14892857
L30123095 14797619
L30075476 14750000
L29980238 14702380
L29789761 14702380
L29694523 14750000
L29646904 14797619
L29599285 14892857
L29599285 15130952
L29646904 15226190
L29694523 15273809
L29789761 15321428
L29980238 15321428
L30075476 15273809
L30123095 15226190
L30170714 15130952
" />
</g><text x="96060000.000000" y="60220000.000000"
textLength="2147381.000000" font-size="1333333.000000" lengthAdjust="spacingAndGlyphs"
text-anchor="middle" opacity="0">D2</text>
<g class="stroked-text"><desc>D2</desc>
<path d="M95321904 60172380
L95321904 59172380
L95560000 59172380
L95702857 59220000
L95798095 59315238
L95845714 59410476
L95893333 59600952
L95893333 59743809
L95845714 59934285
L95798095 60029523
L95702857 60124761
L95560000 60172380
L95321904 60172380
" />
<path d="M96274285 59267619
L96321904 59220000
L96417142 59172380
L96655238 59172380
L96750476 59220000
L96798095 59267619
L96845714 59362857
L96845714 59458095
L96798095 59600952
L96226666 60172380
L96845714 60172380
" />
</g><g transform="rotate(-90.000000 12705000.000000 25580000.000000)">
<text x="12705000.000000" y="26080000.000000"
textLength="2147381.000000" font-size="1333333.000000" lengthAdjust="spacingAndGlyphs"
text-anchor="middle" opacity="0">R6</text>
</g>
<g class="stroked-text"><desc>R6</desc>
<path d="M13157380 25746666
L12681190 26080000
" />
<path d="M13157380 26318095
L12157380 26318095
L12157380 25937142
L12205000 25841904
L12252619 25794285
L12347857 25746666
L12490714 25746666
L12585952 25794285
L12633571 25841904
L12681190 25937142
L12681190 26318095
" />
<path d="M12157380 24889523
L12157380 25080000
L12205000 25175238
L12252619 25222857
L12395476 25318095
L12585952 25365714
L12966904 25365714
L13062142 25318095
L13109761 25270476
L13157380 25175238
L13157380 24984761
L13109761 24889523
L13062142 24841904
L12966904 24794285
L12728809 24794285
L12633571 24841904
L12585952 24889523
L12538333 24984761
L12538333 25175238
L12585952 25270476
L12633571 25318095
L12728809 25365714
" />
</g><text x="39545000.000000" y="28620000.000000"
textLength="2195000.000000" font-size="1333333.000000" lengthAdjust="spacingAndGlyphs"
text-anchor="middle" opacity="0">U2</text>
<g class="stroked-text"><desc>U2</desc>
<path d="M38783095 27572380
L38783095 28381904
L38830714 28477142
L38878333 28524761
L38973571 28572380
L39164047 28572380
L39259285 28524761
L39306904 28477142
L39354523 28381904
L39354523 27572380
" />
<path d="M39783095 27667619
L39830714 27620000
L39925952 27572380
L40164047 27572380
L40259285 27620000
L40306904 27667619
L40354523 27762857
L40354523 27858095
L40306904 28000952
L39735476 28572380
L40354523 28572380
" />
</g><text x="34465000.000000" y="18290000.000000"
textLength="2147381.000000" font-size="1333333.000000" lengthAdjust="spacingAndGlyphs"
text-anchor="middle" opacity="0">R4</text>
<g class="stroked-text"><desc>R4</desc>
<path d="M34298333 18242380
L33965000 17766190
" />
<path d="M33726904 18242380
L33726904 17242380
L34107857 17242380
L34203095 17290000
L34250714 17337619
L34298333 17432857
L34298333 17575714
L34250714 17670952
L34203095 17718571
L34107857 17766190
L33726904 17766190
" />
<path d="M35155476 17575714
L35155476 18242380
" />
<path d="M34917380 17194761
L34679285 17909047
L35298333 17909047
" />
</g><g transform="rotate(-90.000000 17785000.000000 20500000.000000)">
<text x="17785000.000000" y="21000000.000000"
textLength="2147381.000000" font-size="1333333.000000" lengthAdjust="spacingAndGlyphs"
text-anchor="middle" opacity="0">R8</text>
</g>
<g class="stroked-text"><desc>R8</desc>
<path d="M18237380 20666666
L17761190 21000000
" />
<path d="M18237380 21238095
L17237380 21238095
L17237380 20857142
L17285000 20761904
L17332619 20714285
L17427857 20666666
L17570714 20666666
L17665952 20714285
L17713571 20761904
L17761190 20857142
L17761190 21238095
" />
<path d="M17665952 20095238
L17618333 20190476
L17570714 20238095
L17475476 20285714
L17427857 20285714
L17332619 20238095
L17285000 20190476
L17237380 20095238
L17237380 19904761
L17285000 19809523
L17332619 19761904
L17427857 19714285
L17475476 19714285
L17570714 19761904
L17618333 19809523
L17665952 19904761
L17665952 20095238
L17713571 20190476
L17761190 20238095
L17856428 20285714
L18046904 20285714
L18142142 20238095
L18189761 20190476
L18237380 20095238
L18237380 19904761
L18189761 19809523
L18142142 19761904
L18046904 19714285
L17856428 19714285
L17761190 19761904
L17713571 19809523
L17665952 19904761
" />
</g></g>
<g style="fill:#000000; fill-opacity:0.0; 
stroke:#000000; stroke-width:120000.000000; stroke-opacity:1; 
stroke-linecap:round; stroke-linejoin:round;">
<path d="M108855000 62640000
L108855000 62310000
" />
<path d="M102315000 65050000
L102315000 64720000
" />
<path d="M108855000 62310000
L102315000 62310000
" />
<path d="M108855000 65050000
L102315000 65050000
" />
<path d="M108855000 64720000
L108855000 65050000
" />
<path d="M102315000 62310000
L102315000 62640000
" />
<path d="M27460000 62135000
L27460000 65225000
" />
<path d="M33009999.964307 63680461.999994 A2990000.000000 2990000.000000 0.0 0 0 27459999.961185 62135169.976577" />
<path d="M27459999.961185 65224830.023423 A2990000.000000 2990000.000000 0.0 0 0 33009999.964307 63679538.000006" />
<circle cx="30020000.000000" cy="63680000.000000" r="2500000.000000" /> 
<path d="M11835000 19770000
L11505000 19770000
" />
<path d="M11505000 26310000
L11835000 26310000
" />
<path d="M14245000 26310000
L13915000 26310000
" />
<path d="M11505000 19770000
L11505000 26310000
" />
<path d="M13915000 19770000
L14245000 19770000
" />
<path d="M14245000 19770000
L14245000 26310000
" />
<path d="M21865000 12150000
L21865000 18690000
" />
<path d="M19125000 18690000
L19455000 18690000
" />
<path d="M19455000 12150000
L19125000 12150000
" />
<path d="M21535000 12150000
L21865000 12150000
" />
<path d="M21865000 18690000
L21535000 18690000
" />
<path d="M19125000 12150000
L19125000 18690000
" />
<path d="M77245000 30860000
L95835000 30860000
" />
<path d="M95835000 30860000
L95835000 55860000
" />
<path d="M95835000 55860000
L77245000 55860000
" />
<path d="M77245000 55860000
L77245000 30860000
" />
<path d="M16585000 14690000
L16585000 21230000
" />
<path d="M18995000 14690000
L19325000 14690000
" />
<path d="M16915000 14690000
L16585000 14690000
" />
<path d="M19325000 14690000
L19325000 21230000
" />
<path d="M19325000 21230000
L18995000 21230000
" />
<path d="M16585000 21230000
L16915000 21230000
" />
<path d="M11205000 30860000
L29795000 30860000
" />
<path d="M29795000 30860000
L29795000 55860000
" />
<path d="M29795000 55860000
L11205000 55860000
" />
<path d="M11205000 55860000
L11205000 30860000
" />
<path d="M42815000 62640000
L42815000 62310000
" />
<path d="M42815000 64720000
L42815000 65050000
" />
<path d="M42815000 65050000
L36275000 65050000
" />
<path d="M36275000 65050000
L36275000 64720000
" />
<path d="M36275000 62310000
L36275000 62640000
" />
<path d="M42815000 62310000
L36275000 62310000
" />
<path d="M96295000 30860000
L114885000 30860000
" />
<path d="M114885000 30860000
L114885000 55860000
" />
<path d="M114885000 55860000
L96295000 55860000
" />
<path d="M96295000 55860000
L96295000 30860000
" />
<path d="M32655000 13920000
L32655000 14250000
" />
<path d="M32655000 11510000
L26115000 11510000
" />
<path d="M32655000 11840000
L32655000 11510000
" />
<path d="M26115000 11510000
L26115000 11840000
" />
<path d="M32655000 14250000
L26115000 14250000
" />
<path d="M26115000 14250000
L26115000 13920000
" />
<path d="M93500000 62135000
L93500000 65225000
" />
<path d="M99049999.964307 63680461.999994 A2990000.000000 2990000.000000 0.0 0 0 93499999.961185 62135169.976577" />
<path d="M93499999.961185 65224830.023423 A2990000.000000 2990000.000000 0.0 0 0 99049999.964307 63679538.000006" />
<circle cx="96060000.000000" cy="63680000.000000" r="2500000.000000" /> 
<path d="M11705000 22310000
L11705000 28850000
" />
<path d="M9295000 22310000
L8965000 22310000
" />
<path d="M11375000 22310000
L11705000 22310000
" />
<path d="M11705000 28850000
L11375000 28850000
" />
<path d="M8965000 28850000
L9295000 28850000
" />
<path d="M8965000 22310000
L8965000 28850000
" />
<path d="M30255000 30860000
L48845000 30860000
" />
<path d="M48845000 30860000
L48845000 55860000
" />
<path d="M48845000 55860000
L30255000 55860000
" />
<path d="M30255000 55860000
L30255000 30860000
" />
<path d="M31195000 16790000
L31195000 16460000
" />
<path d="M37735000 14050000
L31195000 14050000
" />
<path d="M37735000 14380000
L37735000 14050000
" />
<path d="M31195000 14050000
L31195000 14380000
" />
<path d="M37735000 16460000
L37735000 16790000
" />
<path d="M37735000 16790000
L31195000 16790000
" />
<path d="M16785000 17230000
L16785000 23770000
" />
<path d="M14045000 17230000
L14045000 23770000
" />
<path d="M16785000 23770000
L16455000 23770000
" />
<path d="M16455000 17230000
L16785000 17230000
" />
<path d="M14045000 23770000
L14375000 23770000
" />
<path d="M14375000 17230000
L14045000 17230000
" />
<g >
</g>
<g >
</g>
<g >
</g>
<g >
</g>
<g >
</g>
<g >
</g>
<g >
</g>
<g >
</g>
<g >
</g>
<g >
</g>
<g >
</g>
<g >
</g>
<g >
</g>
<g >
</g>
<g >
</g>
<g >
</g>
<g >
</g>
<g >
</g>
<g >
</g>
<g >
</g>
<g >
</g>
<g >
</g>
<g >
</g>
<g >
</g>
<g >
</g>
<g >
</g>
<g >
</g>
</g>
<g style="fill:#000000; fill-opacity:0.0; 
stroke:#000000; stroke-width:120000.000000; stroke-opacity:1; 
stroke-linecap:round; stroke-linejoin:round;">
</g>
<g style="fill:#000000; fill-opacity:0.0; 
stroke:#000000; stroke-width:100000.000000; stroke-opacity:1; 
stroke-linecap:round; stroke-linejoin:round;">
<path d="M50000 71050000
L126050000 71050000
" />
<path d="M126050000 71050000
L126050000 50000
" />
<path d="M126050000 50000
L50000 50000
" />
<path d="M50000 50000
L50000 71050000
" />
<g >
</g>
<g >
</g>
<g >
</g>
<g >
</g>
<g >
</g>
<g >
</g>
<g >
</g>
<g >
</g>
<g >
</g>
<g >
</g>
<g >
</g>
<g >
</g>
<g >
</g>
<g >
</g>
<g >
</g>
<g >
</g>
<g >
</g>
<g >
</g>
<g >
</g>
<g >
</g>
<g >
</g>
<g >
</g>
<g >
</g>
<g >
</g>
<g >
</g>
<g >
</g>
<g >
</g>
</g> 
</svg>
